<svg id="Layer_1" data-name="Layer 1" xmlns="http://www.w3.org/2000/svg" viewBox="0 0 52.94 22.051">
  <g id="town__car-bridge-one">
    <polygon points="52.642 18.774 52.94 17.904 51.176 16.844 50.893 18.115 52.642 18.774" fill="#404040"/>
    <path d="M.319,9.9A2.3,2.3,0,0,0,1.1,8.6,4.12,4.12,0,0,1,2.57,6.7,11.342,11.342,0,0,1,5.586,5.45a33.5,33.5,0,0,1,5.769-.5A16.064,16.064,0,0,0,19.12,2.1C21.241.552,27.461-.338,32.942.12l3.276.274C41.7.853,47.1,2.561,48.229,4.191a28.376,28.376,0,0,0,2.76,3.55A4.779,4.779,0,0,1,52.021,10.1c.175.973.394,2.116.486,2.54s.231,1.288.307,1.92a6.911,6.911,0,0,1-.174,2.261A1.9,1.9,0,0,1,51.631,18.1c-.383.1-5.183-.172-10.667-.6L10.248,15.14c-5.484-.422-9.983-1.223-10-1.778a19.3,19.3,0,0,0-.214-2.14C-.067,10.6.06,10.006.319,9.9Z" fill="#56aedb"/>
    <circle cx="8.825" cy="14.651" r="4.763" fill="#404040" stroke="#010101" stroke-miterlimit="10" stroke-width="0.25"/>
    <circle cx="43.362" cy="17.162" r="4.763" fill="#404040" stroke="#010101" stroke-miterlimit="10" stroke-width="0.25"/>
    <circle cx="43.362" cy="17.162" r="3.554" fill="#989898"/>
    <circle cx="8.825" cy="14.651" r="3.554" fill="#989898"/>
    <polygon points="8.244 11.552 9.291 11.559 8.743 14.569 8.244 11.552" fill="#fff"/>
    <polygon points="10.681 12.195 11.37 12.982 8.755 14.57 10.681 12.195" fill="#fff"/>
    <polygon points="11.785 14.154 11.749 15.201 8.755 14.57 11.785 14.154" fill="#fff"/>
    <polygon points="6.054 13.137 6.694 12.309 8.755 14.57 6.054 13.137" fill="#fff"/>
    <polygon points="42.932 14.08 43.979 14.087 43.43 17.097 42.932 14.08" fill="#fff"/>
    <polygon points="45.368 14.722 46.058 15.51 43.443 17.098 45.368 14.722" fill="#fff"/>
    <polygon points="46.472 16.682 46.437 17.728 43.443 17.098 46.472 16.682" fill="#fff"/>
    <polygon points="40.741 15.665 41.382 14.836 43.443 17.098 40.741 15.665" fill="#fff"/>
    <ellipse cx="4.987" cy="7.107" rx="2.472" ry="0.989" transform="translate(-2.581 2.852) rotate(-25.591)" fill="#f8dd8f" stroke="#010101" stroke-miterlimit="10" stroke-width="0.25"/>
    <path d="M22.588,1.568,17.517,5.179,29.7,6.268l.353-4.589L23.881,1.2A1.963,1.963,0,0,0,22.588,1.568Z" fill="#a0d0d8" stroke="#010101" stroke-miterlimit="10" stroke-width="0.25"/>
    <rect x="32.625" y="0.144" width="4.602" height="8.437" transform="translate(27.892 38.85) rotate(-85.591)" fill="#a0d0d8" stroke="#010101" stroke-miterlimit="10" stroke-width="0.25"/>
    <path d="M42.394,2.63,42.04,7.219l5.327.411-3.7-4.722a.542.542,0,0,0-.386-.209Z" fill="#a0d0d8" stroke="#010101" stroke-miterlimit="10" stroke-width="0.25"/>
    <path d="M49.736,8.593l.632,3.271h.989a.681.681,0,0,0,.638-.92l-.712-1.9a.573.573,0,0,0-.491-.37Z" fill="#f8dd8f" stroke="#010101" stroke-miterlimit="10" stroke-width="0.25"/>
    <ellipse cx="27.909" cy="9.07" rx="0.302" ry="1.739" transform="translate(16.72 36.2) rotate(-85.591)" fill="#010101"/>
    <ellipse cx="38.162" cy="9.861" rx="0.302" ry="1.739" transform="translate(25.396 47.152) rotate(-85.591)" fill="#010101"/>
    <polygon points="11.25 16.339 10.508 17.078 8.755 14.57 11.25 16.339" fill="#fff"/>
    <polygon points="9.365 17.567 8.319 17.599 8.755 14.57 9.365 17.567" fill="#fff"/>
    <polygon points="7.151 17.174 6.366 16.481 8.755 14.57 7.151 17.174" fill="#fff"/>
    <polygon points="5.804 15.372 5.705 14.33 8.755 14.57 5.804 15.372" fill="#fff"/>
    <polygon points="45.937 18.866 45.196 19.605 43.443 17.098 45.937 18.866" fill="#fff"/>
    <polygon points="44.053 20.094 43.007 20.126 43.443 17.098 44.053 20.094" fill="#fff"/>
    <polygon points="41.838 19.701 41.053 19.009 43.443 17.098 41.838 19.701" fill="#fff"/>
    <polygon points="40.492 17.9 40.392 16.858 43.443 17.098 40.492 17.9" fill="#fff"/>
  </g>
</svg>
