<svg id="Layer_1" data-name="Layer 1" xmlns="http://www.w3.org/2000/svg" viewBox="0 0 75.809 30.15">
  <g id="town__farm-car">
    <polygon points="0.327 24.309 0 23.044 2.616 21.735 2.878 23.567 0.327 24.309" fill="#404040"/>
    <path d="M75.445,17.452a3.256,3.256,0,0,1-.968-1.935A5.848,5.848,0,0,0,72.6,12.665a16.046,16.046,0,0,0-4.137-2.1,47.681,47.681,0,0,0-8.121-1.338c-3.044-.266-7.855-2.466-10.692-4.89S40-.035,34.5,0L21.4.086C15.9.121,9.947,1.94,8.174,4.127a40.311,40.311,0,0,1-4.3,4.728,6.788,6.788,0,0,0-1.719,3.224c-.355,1.359-.79,2.955-.967,3.546s-.468,1.8-.645,2.686a9.854,9.854,0,0,0,0,3.224,2.709,2.709,0,0,0,1.29,1.935c.532.177,5.467.322,10.967.322H65.015c5.5,0,10.067-.643,10.149-1.428a27.313,27.313,0,0,1,.537-3.009C75.915,18.486,75.8,17.629,75.445,17.452Z" fill="#fff"/>
    <circle cx="62.872" cy="23.255" r="6.77" fill="#404040" stroke="#010101" stroke-miterlimit="10" stroke-width="0.25"/>
    <circle cx="13.654" cy="23.04" r="6.77" fill="#404040" stroke="#010101" stroke-miterlimit="10" stroke-width="0.25"/>
    <circle cx="13.654" cy="23.04" r="5.051" fill="#989898"/>
    <circle cx="62.872" cy="23.255" r="5.051" fill="#989898"/>
    <polygon points="64.033 18.926 62.548 18.822 62.997 23.147 64.033 18.926" fill="#fff"/>
    <polygon points="60.51 19.57 59.446 20.611 62.979 23.147 60.51 19.57" fill="#fff"/>
    <polygon points="58.731 22.227 58.667 23.713 62.979 23.147 58.731 22.227" fill="#fff"/>
    <polygon points="66.964 21.412 66.147 20.168 62.979 23.147 66.964 21.412" fill="#fff"/>
    <polygon points="14.6 18.718 13.116 18.614 13.565 22.939 14.6 18.718" fill="#fff"/>
    <polygon points="11.077 19.362 10.014 20.403 13.547 22.939 11.077 19.362" fill="#fff"/>
    <polygon points="9.299 22.019 9.235 23.505 13.547 22.939 9.299 22.019" fill="#fff"/>
    <polygon points="17.532 21.204 16.715 19.96 13.547 22.939 17.532 21.204" fill="#fff"/>
    <ellipse cx="69.134" cy="12.983" rx="1.406" ry="3.513" transform="translate(23.323 66.363) rotate(-60)" fill="#f8dd8f" stroke="#010101" stroke-miterlimit="10" stroke-width="0.25"/>
    <path d="M44.8,3.21l6.791,5.672L34.2,9.093V2.552h8.8A2.8,2.8,0,0,1,44.8,3.21Z" fill="#a0d0d8" stroke="#010101" stroke-miterlimit="10" stroke-width="0.25"/>
    <rect x="21.011" y="2.552" width="11.991" height="6.541" fill="#a0d0d8" stroke="#010101" stroke-miterlimit="10" stroke-width="0.25"/>
    <path d="M16.614,2.552V9.093H9.02l5.762-6.286a.772.772,0,0,1,.57-.255Z" fill="#a0d0d8" stroke="#010101" stroke-miterlimit="10" stroke-width="0.25"/>
    <path d="M5.557,10.2,4.305,14.765l-1.4-.108a.967.967,0,0,1-.8-1.372l1.216-2.616a.811.811,0,0,1,.736-.469Z" fill="#f8dd8f" stroke="#010101" stroke-miterlimit="10" stroke-width="0.25"/>
    <ellipse cx="36.436" cy="13.261" rx="2.472" ry="0.43" fill="#010101"/>
    <ellipse cx="21.821" cy="13.261" rx="2.472" ry="0.43" fill="#010101"/>
    <polygon points="59.251 25.381 60.221 26.509 62.979 23.147 59.251 25.381" fill="#fff"/>
    <polygon points="61.787 27.327 63.266 27.486 62.979 23.147 61.787 27.327" fill="#fff"/>
    <polygon points="64.968 27.012 66.156 26.116 62.979 23.147 64.968 27.012" fill="#fff"/>
    <polygon points="67.073 24.606 67.328 23.14 62.979 23.147 67.073 24.606" fill="#fff"/>
    <polygon points="9.818 25.173 10.789 26.301 13.547 22.939 9.818 25.173" fill="#fff"/>
    <polygon points="12.355 27.119 13.834 27.278 13.547 22.939 12.355 27.119" fill="#fff"/>
    <polygon points="15.536 26.804 16.724 25.908 13.547 22.939 15.536 26.804" fill="#fff"/>
    <polygon points="17.641 24.398 17.896 22.932 13.547 22.939 17.641 24.398" fill="#fff"/>
  </g>
</svg>
