<svg xmlns="http://www.w3.org/2000/svg" viewBox="0 0 1366 768">
  <g id="indoors">
    <rect width="1366" height="595" fill="#ffeb33"/>
    <rect y="593" width="1366" height="176" fill="#3f3f3f"/>
    <rect x="307" y="103" width="208" height="161.778" fill="#a0d1d8" stroke="#fff" stroke-miterlimit="10" stroke-width="6"/>
    <rect x="282" y="398" width="328" height="202" fill="#999"/>
    <rect x="521" y="102" width="104" height="161.778" fill="#a0d1d8" stroke="#fff" stroke-miterlimit="10" stroke-width="6"/>
    <rect x="267" y="105" width="358" height="495" fill="#55556b" opacity="0.15"/>
    <g>
      <rect x="719.5" y="420.5" width="47" height="57" fill="#f9eda5" stroke="#87802b" stroke-miterlimit="10"/>
      <rect x="625.5" y="420.5" width="47" height="57" fill="#f9eda5" stroke="#87802b" stroke-miterlimit="10"/>
      <rect x="672.5" y="420.5" width="47" height="57" fill="#f9eda5" stroke="#87802b" stroke-miterlimit="10"/>
      <rect x="766.5" y="420.5" width="47" height="57" fill="#f9eda5" stroke="#87802b" stroke-miterlimit="10"/>
      <rect x="813.5" y="420.5" width="47" height="57" fill="#f9eda5" stroke="#87802b" stroke-miterlimit="10"/>
      <rect x="690.5" y="247.5" width="47" height="57" fill="#f9eda5" stroke="#87802b" stroke-miterlimit="10"/>
      <rect x="619.5" y="247.5" width="24" height="57" fill="#f9eda5" stroke="#87802b" stroke-miterlimit="10"/>
      <rect x="643.5" y="247.5" width="47" height="57" fill="#f9eda5" stroke="#87802b" stroke-miterlimit="10"/>
      <rect x="737.5" y="247.5" width="47" height="57" fill="#f9eda5" stroke="#87802b" stroke-miterlimit="10"/>
      <rect x="784.5" y="247.5" width="47" height="57" fill="#f9eda5" stroke="#87802b" stroke-miterlimit="10"/>
      <rect x="672.5" y="305.5" width="47" height="57" fill="#f9eda5" stroke="#87802b" stroke-miterlimit="10"/>
      <rect x="842.5" y="478.5" width="47" height="57" fill="#f9eda5" stroke="#87802b" stroke-miterlimit="10"/>
      <rect x="625.5" y="305.5" width="47" height="57" fill="#f9eda5" stroke="#87802b" stroke-miterlimit="10"/>
      <rect x="719.5" y="305.5" width="47" height="57" fill="#f9eda5" stroke="#87802b" stroke-miterlimit="10"/>
      <rect x="766.5" y="305.5" width="47" height="57" fill="#f9eda5" stroke="#87802b" stroke-miterlimit="10"/>
      <rect x="703.5" y="478.5" width="47" height="57" fill="#f9eda5" stroke="#87802b" stroke-miterlimit="10"/>
      <rect x="813.5" y="305.5" width="47" height="57" fill="#f9eda5" stroke="#87802b" stroke-miterlimit="10"/>
      <rect x="831.5" y="247.5" width="47" height="57" fill="#f9eda5" stroke="#87802b" stroke-miterlimit="10"/>
      <rect x="750.5" y="478.5" width="47" height="57" fill="#f9eda5" stroke="#87802b" stroke-miterlimit="10"/>
      <rect x="797.5" y="478.5" width="47" height="57" fill="#f9eda5" stroke="#87802b" stroke-miterlimit="10"/>
      <rect x="737.5" y="363.5" width="47" height="57" fill="#f9eda5" stroke="#87802b" stroke-miterlimit="10"/>
      <rect x="643.5" y="363.5" width="47" height="57" fill="#f9eda5" stroke="#87802b" stroke-miterlimit="10"/>
      <rect x="690.5" y="363.5" width="47" height="57" fill="#f9eda5" stroke="#87802b" stroke-miterlimit="10"/>
      <rect x="784.5" y="363.5" width="47" height="57" fill="#f9eda5" stroke="#87802b" stroke-miterlimit="10"/>
      <rect x="831.5" y="363.5" width="47" height="57" fill="#f9eda5" stroke="#87802b" stroke-miterlimit="10"/>
      <rect x="767.5" y="536.5" width="47" height="57" fill="#f9eda5" stroke="#87802b" stroke-miterlimit="10"/>
      <rect x="673.5" y="536.5" width="47" height="57" fill="#f9eda5" stroke="#87802b" stroke-miterlimit="10"/>
      <rect x="720.5" y="536.5" width="47" height="57" fill="#f9eda5" stroke="#87802b" stroke-miterlimit="10"/>
      <rect x="814.5" y="536.5" width="47" height="57" fill="#f9eda5" stroke="#87802b" stroke-miterlimit="10"/>
      <rect x="619.5" y="363.5" width="25" height="57" fill="#f9eda5" stroke="#87802b" stroke-miterlimit="10"/>
      <rect x="656.5" y="478.5" width="47" height="57" fill="#f9eda5" stroke="#87802b" stroke-miterlimit="10"/>
      <rect x="625.5" y="478.5" width="31" height="57" fill="#f9eda5" stroke="#87802b" stroke-miterlimit="10"/>
      <rect x="625.5" y="536.5" width="47" height="57" fill="#f9eda5" stroke="#87802b" stroke-miterlimit="10"/>
    </g>
    <path d="M613,594.5H336.728c-19.074,0-38.307-.722-57.371,0-.113,0-.228-.008-.341,0,.075,0,2.528.553.8.09-1.664-.446.526.222.713.313q1.773,1.575.617.454-1.12-1.155.454.617c.091.187.759,2.377.313.713-.436-1.631.115.464.09.812,0-.014,0-.028,0-.042.007-.114,0-.229,0-.342.053-1.47,0-2.953,0-4.423V121.846c0-5.181.42-10.561,0-15.729-.028-.343.021-.692,0-1.035.052.874-.766,1.833.079.123a15.192,15.192,0,0,1-1.371,2.372c.634-.925,1.912-1-.182.02-.187.091-2.377.759-.713.313,1.634-.437-.472.113-.809.09,1.29.089,2.618,0,3.91,0H607.1c1.871,0,3.745-.028,5.616,0,.092,0,.184,0,.276,0,.24,0,.82-.323-.7-.129-1.762.225,1.3.913-.155-.033-.571-.372-1.131-.732-1.711-1.13,1.869,1.282.355.1-.261-.842-.949-1.461-.252,1.614-.033-.155.256-2.07-.134-.94-.129-.7v.06c0,.128,0,.257,0,.385.06,4.517,0,9.038,0,13.555V590.914c0,1.789-.127,3.631,0,5.416.025.351.007.72,0,1.073-.011.566.355-1.441.258-1.325-2.339,2.8,3.231-2.389.165-.286.6-.408,1.11-.761,1.711-1.13,1.559-.955-2.729.033.866-.162-7.822.425-15.376,6.6-15,15,.348,7.763,6.609,15.456,15,15,15.227-.827,26.469-11.954,27-27.3.049-1.428,0-2.867,0-4.3v-445.2c0-14.139.436-28.356,0-42.49A27.6,27.6,0,0,0,612.99,78c-1.379-.047-2.767,0-4.146,0h-326.4c-1.585,0-3.169-.033-4.752.071-14.663.959-25.294,12.805-25.7,27.284-.125,4.483,0,8.987,0,13.471v474.7c0,1.263-.047,2.536,0,3.8.561,15.153,11.854,26.564,27.026,27.172,5.109.205,10.269,0,15.381,0H613c7.846,0,15.363-6.9,15-15C627.636,601.373,621.409,594.5,613,594.5Z" fill="#3f3f3f"/>
    <g>
      <rect x="972.5" y="247.5" width="47" height="57" fill="#f9eda5" stroke="#87802b" stroke-miterlimit="10"/>
      <rect x="878.5" y="247.5" width="47" height="57" fill="#f9eda5" stroke="#87802b" stroke-miterlimit="10"/>
      <rect x="925.5" y="247.5" width="47" height="57" fill="#f9eda5" stroke="#87802b" stroke-miterlimit="10"/>
      <rect x="1019.5" y="247.5" width="47" height="57" fill="#f9eda5" stroke="#87802b" stroke-miterlimit="10"/>
      <rect x="1066.5" y="247.5" width="47" height="57" fill="#f9eda5" stroke="#87802b" stroke-miterlimit="10"/>
      <rect x="1207.5" y="247.5" width="47" height="57" fill="#f9eda5" stroke="#87802b" stroke-miterlimit="10"/>
      <rect x="1113.5" y="247.5" width="47" height="57" fill="#f9eda5" stroke="#87802b" stroke-miterlimit="10"/>
      <rect x="1160.5" y="247.5" width="47" height="57" fill="#f9eda5" stroke="#87802b" stroke-miterlimit="10"/>
      <rect x="1254.5" y="247.5" width="47" height="57" fill="#f9eda5" stroke="#87802b" stroke-miterlimit="10"/>
      <rect x="1301.5" y="247.5" width="47" height="57" fill="#f9eda5" stroke="#87802b" stroke-miterlimit="10"/>
      <rect x="1189.5" y="305.5" width="47" height="57" fill="#f9eda5" stroke="#87802b" stroke-miterlimit="10"/>
      <rect x="1095.5" y="305.5" width="47" height="57" fill="#f9eda5" stroke="#87802b" stroke-miterlimit="10"/>
      <rect x="1142.5" y="305.5" width="47" height="57" fill="#f9eda5" stroke="#87802b" stroke-miterlimit="10"/>
      <rect x="1236.5" y="305.5" width="47" height="57" fill="#f9eda5" stroke="#87802b" stroke-miterlimit="10"/>
      <rect x="1283.5" y="305.5" width="47" height="57" fill="#f9eda5" stroke="#87802b" stroke-miterlimit="10"/>
      <rect x="956.5" y="305.5" width="47" height="57" fill="#f9eda5" stroke="#87802b" stroke-miterlimit="10"/>
      <rect x="1330.5" y="305.5" width="47" height="57" fill="#f9eda5" stroke="#87802b" stroke-miterlimit="10"/>
      <rect x="1348.5" y="247.5" width="47" height="57" fill="#f9eda5" stroke="#87802b" stroke-miterlimit="10"/>
      <rect x="1003.5" y="305.5" width="47" height="57" fill="#f9eda5" stroke="#87802b" stroke-miterlimit="10"/>
      <rect x="1050.5" y="305.5" width="47" height="57" fill="#f9eda5" stroke="#87802b" stroke-miterlimit="10"/>
      <rect x="1254.5" y="363.5" width="47" height="57" fill="#f9eda5" stroke="#87802b" stroke-miterlimit="10"/>
      <rect x="1160.5" y="363.5" width="47" height="57" fill="#f9eda5" stroke="#87802b" stroke-miterlimit="10"/>
      <rect x="1207.5" y="363.5" width="47" height="57" fill="#f9eda5" stroke="#87802b" stroke-miterlimit="10"/>
      <rect x="1301.5" y="363.5" width="47" height="57" fill="#f9eda5" stroke="#87802b" stroke-miterlimit="10"/>
      <rect x="1348.5" y="363.5" width="47" height="57" fill="#f9eda5" stroke="#87802b" stroke-miterlimit="10"/>
      <rect x="1020.5" y="363.5" width="47" height="57" fill="#f9eda5" stroke="#87802b" stroke-miterlimit="10"/>
      <rect x="926.5" y="363.5" width="47" height="57" fill="#f9eda5" stroke="#87802b" stroke-miterlimit="10"/>
      <rect x="973.5" y="363.5" width="47" height="57" fill="#f9eda5" stroke="#87802b" stroke-miterlimit="10"/>
      <rect x="1067.5" y="363.5" width="47" height="57" fill="#f9eda5" stroke="#87802b" stroke-miterlimit="10"/>
      <rect x="1114.5" y="363.5" width="47" height="57" fill="#f9eda5" stroke="#87802b" stroke-miterlimit="10"/>
      <rect x="909.5" y="305.5" width="47" height="57" fill="#f9eda5" stroke="#87802b" stroke-miterlimit="10"/>
      <rect x="860.5" y="305.5" width="49" height="57" fill="#f9eda5" stroke="#87802b" stroke-miterlimit="10"/>
      <rect x="878.5" y="363.5" width="47" height="57" fill="#f9eda5" stroke="#87802b" stroke-miterlimit="10"/>
    </g>
    <rect x="835" y="412" width="363" height="198" fill="#4f4f4f" stroke="#3f3f3f" stroke-miterlimit="10" stroke-width="4"/>
    <path d="M980,461l-.876,88.443L979,562c-.064,6.437,9.936,6.442,10,0l.876-88.443L990,461c.064-6.437-9.936-6.442-10,0Z" fill="#bcbcbc"/>
    <path d="M1043.5,461l-.876,88.443L1042.5,562c-.064,6.437,9.936,6.442,10,0l.876-88.443L1053.5,461c.064-6.437-9.936-6.442-10,0Z" fill="#bcbcbc"/>
    <line x1="1016.5" y1="411.5" x2="1016.5" y2="609.5" fill="none" stroke="#3f3f3f" stroke-miterlimit="10" stroke-width="4"/>
    <polyline points="835 412 877 398 1366 398 1366 412 1198 412 1143 780 1366 780 1384 412" fill="#93b9ba"/>
    <line x1="1199" y1="244" x2="1366" y2="244" fill="none" stroke="#3f3f3f" stroke-miterlimit="10" stroke-width="6"/>
    <polyline points="1411 240 1244 240 1263 228 1411 228" fill="#3f3f3f"/>
    <g>
      <rect x="880" y="48" width="363" height="198" fill="#4f4f4f" stroke="#3f3f3f" stroke-miterlimit="10" stroke-width="4"/>
      <path d="M1025,97l-.876,88.443L1024,198c-.064,6.437,9.936,6.442,10,0l.876-88.443L1035,97c.064-6.437-9.936-6.442-10,0Z" fill="#bcbcbc"/>
      <path d="M1088.5,97l-.876,88.443L1087.5,198c-.064,6.437,9.936,6.442,10,0l.876-88.443L1098.5,97c.064-6.437-9.936-6.442-10,0Z" fill="#bcbcbc"/>
      <line x1="1061.5" y1="47.5" x2="1061.5" y2="245.5" fill="none" stroke="#3f3f3f" stroke-miterlimit="10" stroke-width="4"/>
      <polyline points="1243 48 1411 48 1411 245.5 1243 246" fill="#4f4f4f" stroke="#3f3f3f" stroke-miterlimit="10" stroke-width="4"/>
      <line x1="1244" y1="118" x2="1411" y2="118" fill="none" stroke="#3f3f3f" stroke-miterlimit="10" stroke-width="6"/>
      <polyline points="1411 114 1244 114 1263 102 1411 102" fill="#3f3f3f"/>
      <line x1="1244" y1="179" x2="1411" y2="179" fill="none" stroke="#3f3f3f" stroke-miterlimit="10" stroke-width="6"/>
      <polyline points="1411 175 1244 175 1263 163 1411 163" fill="#3f3f3f"/>
      <polygon points="1244 247 1245 48 1263 48 1263 228 1244 247" fill="#3f3f3f"/>
    </g>
    <g>
      <rect x="899" y="306" width="173" height="101" rx="12" ry="12" fill="#fff" stroke="#3f3f3f" stroke-miterlimit="10" stroke-width="0.5"/>
      <rect x="914" y="316.5" width="115.5" height="78.5" fill="#999" stroke="#3f3f3f" stroke-miterlimit="10"/>
      <circle cx="1053" cy="335" r="12" fill="none" stroke="#3f3f3f" stroke-miterlimit="10" stroke-width="3"/>
      <circle cx="1048" cy="374" r="5" fill="#4f4f4f" stroke="#3f3f3f" stroke-miterlimit="10" stroke-width="4"/>
      <circle cx="1048" cy="390" r="4" fill="#4f4f4f" stroke="#3f3f3f" stroke-miterlimit="10" stroke-width="4"/>
      <line x1="1050.5" y1="335.5" x2="1063.5" y2="332.5" fill="none" stroke="#3f3f3f" stroke-miterlimit="10" stroke-width="3"/>
      <line x1="1027" y1="317" x2="1027" y2="395" fill="none" stroke="#3f3f3f" stroke-miterlimit="10" stroke-width="4"/>
    </g>
    <polyline points="1179.124 538.297 1366 538.297 1364.792 661.018 1160.783 661.018" fill="#fff" stroke="#3f3f3f" stroke-miterlimit="10" stroke-width="0.5"/>
    <ellipse cx="1310.5" cy="625" rx="31" ry="23.5" fill="#3f3f3f" stroke="#fff" stroke-miterlimit="10" stroke-width="0.5"/>
    <ellipse cx="1226.5" cy="572" rx="31" ry="23.5" fill="#3f3f3f" stroke="#fff" stroke-miterlimit="10" stroke-width="0.5"/>
    <ellipse cx="1310.926" cy="572.5" rx="22.426" ry="17" fill="#3f3f3f" stroke="#fff" stroke-miterlimit="10" stroke-width="0.5"/>
    <ellipse cx="1221.223" cy="625" rx="25.723" ry="19.5" fill="#3f3f3f" stroke="#fff" stroke-miterlimit="10" stroke-width="0.5"/>
    <path d="M835.832,412.705l42-14c1.519-.506.868-2.921-.664-2.41l-42,14c-1.519.506-.868,2.921.664,2.41Z" fill="#3f3f3f"/>
    <rect x="413" y="385.5" width="171.5" height="76.5" rx="12" ry="12" fill="#f9eda5" stroke="#87802b" stroke-miterlimit="10"/>
    <rect x="407.041" y="330" width="80.71" height="110.059" rx="12" ry="12" transform="translate(-30.04 37.948) rotate(-4.699)" fill="#f9eda5" stroke="#87802b" stroke-miterlimit="10"/>
    <rect x="411" y="418.213" width="173.893" height="99.787" rx="12" ry="12" fill="#f9eda5" stroke="#87802b" stroke-miterlimit="10"/>
  </g>
</svg>
